<svg width="1200" height="900" viewBox="0 0 1200 900" fill="none" xmlns="http://www.w3.org/2000/svg">
  <rect width="1200" height="900" rx="48" fill="#F8EFE7"/>
  <circle cx="965" cy="170" r="130" fill="#F0D8CA"/>
  <circle cx="240" cy="720" r="180" fill="#E9C3B1"/>
  <rect x="160" y="160" width="880" height="580" rx="40" fill="#FFF9F4"/>
  <rect x="520" y="270" width="160" height="240" rx="46" fill="#CB7B5A"/>
  <rect x="560" y="220" width="80" height="72" rx="22" fill="#8D3D24"/>
  <rect x="548" y="470" width="104" height="120" rx="24" fill="#F1D9CD"/>
  <path d="M442 624C442 577.608 479.608 540 526 540H674C720.392 540 758 577.608 758 624V640H442V624Z" fill="#2E211D" fill-opacity="0.08"/>
  <path d="M334 268C372.4 268 404 299.6 404 338V562C404 600.4 372.4 632 334 632C295.6 632 264 600.4 264 562V338C264 299.6 295.6 268 334 268Z" fill="#F1D9CD"/>
  <path d="M866 268C904.4 268 936 299.6 936 338V562C936 600.4 904.4 632 866 632C827.6 632 796 600.4 796 562V338C796 299.6 827.6 268 866 268Z" fill="#F1D9CD"/>
  <path d="M334 312C348.912 312 361 324.088 361 339V562C361 576.912 348.912 589 334 589C319.088 589 307 576.912 307 562V339C307 324.088 319.088 312 334 312Z" fill="#CB7B5A"/>
  <path d="M866 312C880.912 312 893 324.088 893 339V562C893 576.912 880.912 589 866 589C851.088 589 839 576.912 839 562V339C839 324.088 851.088 312 866 312Z" fill="#CB7B5A"/>
  <text x="600" y="710" text-anchor="middle" fill="#8D3D24" font-family="Arial, Helvetica, sans-serif" font-size="52" font-weight="700">
    peluq-ABA
  </text>
  <text x="600" y="770" text-anchor="middle" fill="#6E625B" font-family="Arial, Helvetica, sans-serif" font-size="28">
    Imagen suplementaria del catalogo
  </text>
</svg>
